<svg width="494" height="341" viewBox="0 0 494 341" fill="none" xmlns="http://www.w3.org/2000/svg">
<path d="M246.72 340.97C382.979 340.97 493.44 336.5 493.44 330.985C493.44 325.47 382.979 321 246.72 321C110.46 321 0 325.47 0 330.985C0 336.5 110.46 340.97 246.72 340.97Z" fill="#E5E5E5" fill-opacity="0.5"/>
<circle cx="285.5" cy="40.5" r="40.5" fill="#E5E5E5" fill-opacity="0.5"/>
<path d="M165.854 179.94V183.716C165.854 183.716 163.157 184.795 163.157 189.109C163.157 193.424 161 209.605 161 209.605C161 209.605 164.775 212.841 168.012 211.762C169.803 211.218 171.458 210.299 172.866 209.066L173.405 192.346L171.248 188.031V180.48L165.854 179.94Z" fill="#0FA9EA"/>
<path d="M269.035 30C269.035 30 259.655 31.0787 259.655 35.3936C259.655 39.7084 252.151 55.889 252.151 55.889C252.151 55.889 265.283 59.1251 276.539 58.0464C287.795 56.9677 293.423 55.3496 293.423 55.3496L295.299 38.6297L287.795 34.3148L269.035 30Z" fill="#0FA9EA"/>
<path d="M269.95 67.7551V57.5074C269.95 57.5074 258.624 34.8545 267.793 34.8545C276.962 34.8545 278.041 55.3499 278.041 55.3499V69.9125L269.95 67.7551Z" fill="#FFB8B8"/>
<path d="M172.864 175.086C172.864 175.086 166.931 171.85 165.853 175.086C164.774 178.322 161.538 185.333 165.853 185.873C170.168 186.412 174.482 182.637 174.482 182.637L172.864 175.086Z" fill="#FFB8B8"/>
<path d="M202.066 196.934C202.066 196.934 198.819 201.223 203.531 243.068C208.243 284.914 205.528 315.383 214.473 314.965C214.473 314.965 212.138 324.039 219.739 324.374C227.34 324.708 230.813 325.236 231.405 323.139C231.996 321.043 232.923 311.345 230.859 311.442C230.859 311.442 230.987 314.194 231.849 303.12C232.712 292.047 230.27 239.751 233.389 232.71L245.587 257.655C245.587 257.655 246.134 269.353 248.455 274.761C250.776 280.17 255.694 311.661 255.694 311.661L255.231 316.51C255.231 316.51 271.874 318.492 272.433 315.707C272.993 312.923 272.8 308.794 272.048 307.45C271.296 306.106 271.296 306.106 272.543 303.289C273.096 302.23 273.415 301.065 273.478 299.873C273.541 298.68 273.348 297.488 272.91 296.376C272.126 294.344 270.038 249.618 270.038 249.618C270.038 249.618 266.124 195.322 257.738 192.956C249.352 190.589 202.066 196.934 202.066 196.934Z" fill="#2F2E41"/>
<path d="M216.729 318.997L211.674 328.887C211.674 328.887 202.928 326.193 205.018 334.025C213.413 334.287 221.815 333.779 230.117 332.509C230.117 332.509 233.622 333.724 234.214 331.628C234.805 329.531 232.06 322.419 229.996 322.515C227.931 322.612 216.729 318.997 216.729 318.997Z" fill="#2F2E41"/>
<path d="M256.51 314.381C256.51 314.381 251.584 327.024 253.68 327.616C255.776 328.208 274.483 330.093 275.892 330.716C277.3 331.34 284.213 331.707 284.709 327.546C285.204 323.386 281.011 322.202 281.011 322.202C281.011 322.202 273.378 321.179 270.992 314.395C268.607 307.61 256.51 314.381 256.51 314.381Z" fill="#2F2E41"/>
<path d="M202.215 86.7715C202.215 86.7715 206.007 106.487 204.49 110.278C202.974 114.07 225.722 108.762 225.722 108.762C225.722 108.762 221.173 89.0463 221.931 84.4966C222.689 79.9469 202.215 86.7715 202.215 86.7715Z" fill="#FFB8B8"/>
<path d="M209.36 62.1519C208.162 61.9349 206.931 61.9892 205.756 62.3111C204.816 62.7273 203.951 63.2948 203.195 63.9912C201.823 65.0846 200.358 66.0555 198.816 66.8926C197.528 67.4466 196.368 68.2596 195.408 69.2811C195.003 69.8391 194.679 70.452 194.447 71.1015C192.969 74.8755 192.572 78.9865 193.3 82.9736C193.382 83.5401 193.552 84.0902 193.805 84.6038C194.593 86.0558 196.334 86.6281 197.8 87.3893C200.584 88.8344 202.694 91.2679 204.978 93.4185C205.826 94.2651 206.779 94.9996 207.814 95.6041C211.071 97.3802 215.053 96.8007 218.71 96.1727C218.969 96.1722 219.225 96.1204 219.464 96.0203C219.703 95.9202 219.92 95.7739 220.102 95.5896C220.285 95.4053 220.429 95.1868 220.526 94.9466C220.623 94.7065 220.672 94.4494 220.67 94.1903L223.556 81.208C224.079 79.2846 224.328 77.2969 224.296 75.3038C224.094 72.1523 222.388 67.7868 220.075 65.5482C217.38 62.9399 212.883 62.5249 209.36 62.1519Z" fill="#2F2E41"/>
<path d="M198.755 111.443C198.755 111.443 199.833 103.892 206.306 103.353C209.966 103.007 213.581 102.284 217.093 101.195C217.632 101.195 224.644 101.735 227.88 104.971C227.88 104.971 230.037 108.207 231.116 106.05C232.195 103.892 232.195 102.813 234.352 103.892C236.509 104.971 236.509 100.656 240.285 101.195C244.06 101.735 253.769 126.006 253.769 126.006L250.533 129.781C250.533 129.781 246.218 158.906 253.769 171.311C261.32 183.716 264.556 197.2 257.005 199.897C249.454 202.594 196.597 226.865 198.755 211.763C200.912 196.661 199.294 172.929 197.137 172.39C194.979 171.851 183.113 129.242 183.113 129.242C183.591 126.536 184.726 123.99 186.419 121.827C188.112 119.664 190.311 117.95 192.822 116.837C201.451 113.061 198.755 111.443 198.755 111.443Z" fill="#0FA9EA"/>
<path d="M237.589 103.352L240.286 101.195C240.286 101.195 245.14 101.195 245.679 100.116C246.219 99.0372 248.915 99.0372 251.073 97.9585C253.23 96.8798 250.533 95.2618 253.23 94.1831C255.927 93.1043 255.927 94.183 255.927 91.4863C255.927 88.7895 262.938 86.0927 263.478 82.8566C264.017 79.6205 269.411 64.5186 269.411 64.5186L279.658 67.7547L276.962 87.1714C276.962 87.1714 276.962 96.8798 272.108 103.352C267.253 109.824 256.466 126.005 251.073 126.544C245.679 127.084 237.589 103.352 237.589 103.352Z" fill="#0FA9EA"/>
<path d="M186.348 126.544L183.112 129.241C183.112 129.241 182.034 141.106 182.034 141.646C182.034 142.185 183.112 148.657 182.034 149.197C180.955 149.736 178.797 160.523 179.337 161.063V162.681L171.786 174.546V185.873L189.585 174.546C189.585 174.546 199.832 173.468 198.214 164.299C196.596 155.13 186.348 126.544 186.348 126.544Z" fill="#0FA9EA"/>
</svg>
